<svg xmlns="http://www.w3.org/2000/svg" width="50" height="48" fill="none" viewBox="0 0 50 48">
  <defs>
    <linearGradient id="a" x1="40.5" x2="14.2798" y1="9.75" y2="36.0289" gradientUnits="userSpaceOnUse">
      <stop stop-color="#EF4FFF"/>
      <stop offset=".591346" stop-color="#C711E1"/>
      <stop offset="1" stop-color="#7F52FF"/>
    </linearGradient>
  </defs>
  <path fill="url(#a)" d="M45.2651 31.2018c.5412-.8296 1.6901-3.089 2.2119-4.1107.0703-.1377.1147-.2779.1479-.4193 3.521-7.1636 3.0453-19.76051-.8847-23.63046C42.7553-.882607 29.7189-.971833 22.5969 2.5553c-1.0375.51387-3.091 1.41093-4.2061 2.12034-1.7461 1.11084-3.4652 2.24549-3.514 4.19936-.0386 1.5436 2.1938 3.6853 1.8203 4.6178-.8378 2.091-2.9192.7039-5.7516 4.2835-1.8591 2.3495.0956 5.9376-.2489 6.5312-1.78269 3.0719-5.3712 1.6633-7.68559 2.9089-1.67697.9026-2.592276 2.5516-2.9709 3.3964-.134624.3005.085784.6476.420355.6546.702225.0148 1.242215-.3334 3.091925-.6302 2.40697-.3862 3.95003-1.3944 4.65043-.6623.35891.3751-1.87347 1.0039-2.32399 1.124-1.2061.3211-2.869.6192-3.5423 1.7726-.15497.2656-.04951.6081.23184.744 1.04905.5065 2.22295 1.0859 4.09074.6005 1.95463-.5079 3.26781-1.9065 4.28339-1.0194.6545.5719-5.76301 2.4445-5.30546 3.7644.32408.9349 3.70823 1.7357 6.29506-.4005.727-.6003 1.4643-1.3278 1.6851-.7712.5657 1.4258-3.2848 2.8332-3.4279 5.4419-.0065.1197.0823.2235.1969.2651 3.7233 1.3539 4.9297-3.5647 5.6899-3.2881 2.1435.7798-3.0089 3.5739-2.133 6.7841.034.1242.1594.2089.2892.199.8951-.069 1.8484-.2073 3.2275-1.5653 1.11-1.0931 1.0388-2.9358 1.6984-2.8609.6595.0748-.3521 2.2666-1.1177 3.8777-.5802 1.2212-1.0125 2.3662-1.0675 3.0063-.0195.2292.2171.4053.439.3354 3.5202-1.1077 4.5782-3.2302 4.7803-3.9022.6521-2.1641.6286-4.3444 2.7143-5.6685.6276-.3241 4.4036 1.5782 6.859-.1356 3.4249-2.3904 2.7282-4.8987 4.3511-5.6625.947-.3679 3.1456 1.6833 4.5995 1.6355 2.0319-.067 3.4254-1.3271 4.5489-3.0494Z"/>
  <path fill="#000" d="M26.3966 29.3375c1.4917-.975 3.504-.5743 4.4942.8945.9901 1.469.5835 3.4508-.9082 4.4258-1.4918.9749-3.5041.5743-4.4942-.8945-.9901-1.469-.5835-3.4508.9082-4.4258Z"/>
  <path fill="#000" d="M17.3048 27.2398c1.0919-.6552.531 1.2584 1.8497 2.7744.0282.0327.1474.15.1806.1778 1.5399 1.2987 3.4829.7464 2.8164 1.8222-.1746.2794-2.1974 1.5144-4.3017-.5371-2.0849-2.0735-.8276-4.0675-.545-4.2373Z"/>
  <path fill="#000" d="M15.5275 18.6344c1.4917-.975 3.504-.5743 4.4941.8945.9902 1.4689.5836 3.4508-.9082 4.4258-1.4917.9748-3.504.5743-4.4941-.8946-.9901-1.4689-.5835-3.4507.9082-4.4257Z"/>
</svg>
