<svg fill="none" viewBox="0 0 50 48">
    <path fill="#fff" d="M22.597 2.556C29.719-.972 42.756-.883 46.74 3.04c3.93 3.87 4.406 16.467.885 23.63a1.83 1.83 0 0 1-.148.42c-.522 1.021-1.671 3.281-2.212 4.111-1.124 1.722-2.517 2.982-4.55 3.049-1.453.048-3.652-2.004-4.599-1.636-1.622.764-.925 3.273-4.35 5.663-2.456 1.714-6.232-.188-6.86.136-2.085 1.324-2.062 3.504-2.713 5.668-.203.672-1.26 2.795-4.78 3.902-.223.07-.46-.106-.44-.335.055-.64.487-1.785 1.067-3.007.766-1.61 1.778-3.802 1.118-3.877-.66-.075-.588 1.768-1.698 2.86-1.379 1.359-2.332 1.497-3.227 1.566a.28.28 0 0 1-.29-.199c-.875-3.21 4.276-6.004 2.133-6.784-.76-.277-1.967 4.642-5.69 3.288-.114-.042-.203-.145-.196-.265.143-2.608 3.993-4.016 3.427-5.442-.22-.556-.958.171-1.685.771-2.587 2.136-5.971 1.336-6.295.4-.458-1.319 5.96-3.192 5.306-3.764-1.016-.887-2.33.512-4.284 1.02-1.867.485-3.042-.094-4.09-.6a.53.53 0 0 1-.233-.745c.673-1.153 2.337-1.451 3.543-1.772.451-.12 2.682-.75 2.324-1.124-.7-.733-2.244.275-4.651.662-1.85.296-2.39.645-3.092.63a.469.469 0 0 1-.42-.655c.379-.845 1.294-2.494 2.97-3.396 2.315-1.246 5.904.163 7.686-2.908.345-.594-1.61-4.182.25-6.532 2.832-3.58 4.914-2.193 5.751-4.284.373-.933-1.858-3.074-1.82-4.617.049-1.954 1.768-3.088 3.514-4.2 1.115-.709 3.168-1.605 4.206-2.12Zm8.295 27.676c-.99-1.468-3.003-1.869-4.494-.894a3.164 3.164 0 0 0-.909 4.426c.99 1.469 3.003 1.869 4.494.894a3.163 3.163 0 0 0 .909-4.426Zm-11.737-.217c-1.318-1.516-.758-3.43-1.85-2.775-.282.17-1.539 2.164.546 4.238 2.104 2.05 4.127.816 4.301.537.666-1.076-1.276-.524-2.816-1.823a3.06 3.06 0 0 1-.18-.177Zm.867-10.486c-.99-1.468-3.002-1.869-4.494-.894a3.164 3.164 0 0 0-.908 4.425c.99 1.47 3.003 1.87 4.494.895a3.163 3.163 0 0 0 .908-4.426Z"></path>
</svg>
