<svg version="1.0" xmlns="http://www.w3.org/2000/svg"
     width="1021.000000pt" height="1023.000000pt" viewBox="0 0 1021.000000 1023.000000"
     preserveAspectRatio="xMidYMid meet">
    <rect x="0" y="0" width="1021" height="1023" rx="80" fill="white"/>
    <g transform="translate(0.000000,1023.000000) scale(0.100000,-0.100000)"
       fill="#005F0F" stroke="none">
        <path d="M595 10215 c-144 -26 -272 -94 -379 -201 -76 -76 -123 -147 -163
 -246 -56 -139 -53 150 -51 -4693 3 -4233 4 -4473 21 -4530 76 -260 270 -452
527 -522 62 -17 284 -18 4555 -18 4250 0 4493 1 4555 18 258 69 456 267 527
527 17 62 18 285 18 4565 0 4280 -1 4503 -18 4565 -70 257 -262 451 -522 527
 -57 17 -295 18 -4530 20 -3591 1 -4484 -1 -4540 -12z m7983 -1632 c-159 -327
 -277 -580 -631 -1348 -507 -1099 -727 -1546 -1030 -2090 -271 -486 -605 -1003
 -917 -1420 -506 -675 -1010 -1083 -1584 -1282 -403 -139 -859 -115 -1241 67
 -173 83 -390 250 -460 356 -126 189 -126 470 -2 719 36 73 96 147 230 284 230
234 417 385 852 686 897 622 1047 728 1423 1009 897 670 1618 1290 2332 2005
408 409 740 771 1042 1136 57 69 104 125 105 125 1 0 -53 -111 -119 -247z
m-749 -445 c-309 -332 -824 -834 -1229 -1198 -538 -484 -1252 -1052 -1900
 -1510 -96 -68 -258 -183 -360 -255 -102 -72 -288 -203 -415 -290 -489 -336
 -702 -496 -919 -686 -160 -140 -366 -354 -415 -429 -77 -118 -132 -284 -146
 -434 l-8 -80 -33 65 c-81 157 -153 384 -186 584 -7 47 -13 164 -12 280 0 167
3 219 22 313 63 316 219 594 445 795 260 231 583 406 1122 607 1315 490 2378
1063 3525 1898 206 150 597 449 606 463 3 5 10 9 16 9 6 0 -45 -60 -113 -132z"/>
    </g>
</svg>
